<svg width="26" height="18" viewBox="0 0 26 18" fill="none" xmlns="http://www.w3.org/2000/svg">
<g id="Icon" clip-path="url(#clip0_64_224)">
<path id="Vector" d="M0.336426 8.20898C0.11377 8.41992 0.00244141 8.68359 0.00244141 9C0.00244141 9.31641 0.11377 9.58008 0.336426 9.79102L7.49072 16.9629C7.71338 17.1738 7.97998 17.2793 8.29053 17.2793C8.60107 17.2793 8.86768 17.1738 9.09033 16.9629C9.30127 16.7402 9.40674 16.4736 9.40674 16.1631C9.40674 15.8525 9.30127 15.5859 9.09033 15.3633L2.72705 9L9.09033 2.63672C9.30127 2.41406 9.40674 2.14746 9.40674 1.83691C9.40674 1.52637 9.30127 1.25977 9.09033 1.03711C8.86768 0.826172 8.60107 0.720703 8.29053 0.720703C7.97998 0.720703 7.71338 0.826172 7.49072 1.03711L0.336426 8.20898ZM25.8774 7.875H1.12744V10.125H25.8774V7.875Z" fill="#414141"/>
</g>
<defs>
<clipPath id="clip0_64_224">
<rect width="25.88" height="18" fill="white" transform="matrix(1 0 0 -1 0 18)"/>
</clipPath>
</defs>
</svg>
